<svg viewBox="0 0 512 512" xmlns="http://www.w3.org/2000/svg" fill-rule="evenodd" clip-rule="evenodd" stroke-linejoin="round" stroke-miterlimit="2"><g transform="translate(6 131) scale(9.375)"><clipPath id="prefix__a"><path d="M0 0h53.333v26.667H0z"/></clipPath><g clip-path="url(#prefix__a)"><path d="M53.333 13.333C53.333 6.155 47.43.325 40.195.325c-.667 0-1.352.038-2.018.152-5.626.816-9.4 4.975-11.51 8.166-2.11-3.19-5.886-7.35-11.511-8.166a14.47 14.47 0 00-2.017-.152C5.885.325 0 6.155 0 13.333c0 7.179 5.903 13.008 13.139 13.008.666 0 1.352-.037 2.036-.152 5.626-.834 9.4-4.994 11.51-8.184 2.11 3.19 5.884 7.35 11.51 8.184.668.095 1.352.152 2.037.152 7.197 0 13.101-5.83 13.101-13.008m-38.825 8.299c-.459.07-.923.101-1.387.095-4.774 0-8.642-3.779-8.642-8.394 0-4.633 3.885-8.393 8.66-8.393.462 0 .925.037 1.388.095 5.313.778 8.549 6.153 9.66 8.298-1.128 2.166-4.387 7.52-9.679 8.299M38.807 5.035c-5.311.778-8.568 6.153-9.66 8.298 1.092 2.147 4.349 7.52 9.66 8.299.462.057.925.095 1.386.095 4.758 0 8.643-3.76 8.643-8.394 0-4.613-3.867-8.393-8.641-8.393-.464.005-.928.036-1.388.095M9.433 11.94h7.947v2.501H9.433V11.94zm34.427 2.52H41.18v2.627h-2.568V14.46h-2.68v-2.52h2.68V9.31h2.568v2.63h2.68l-.001 2.52zm6.09-12.693c0-.787.645-1.442 1.426-1.442.804 0 1.448.654 1.448 1.443 0 .833-.644 1.443-1.448 1.443a1.443 1.443 0 01-1.425-1.443m1.445-.901h-.712v1.802h.46V2.06h.253l.252.61h.506l-.346-.677c.23-.09.346-.27.346-.518 0-.383-.207-.608-.76-.608m1.174.901v-.017c0-.656-.538-1.198-1.194-1.2-.69 0-1.174.496-1.174 1.217 0 .744.552 1.217 1.174 1.217.688 0 1.194-.473 1.194-1.217m-.897-.316c0 .227-.115.293-.321.293l-.231.023v-.587h.23c.254 0 .322.067.322.271" fill="#008184"/></g></g></svg>